# xmcd CD database file
# Copyright (C) 1997 Ti Kan
# 
# Track frame offsets:
#     187
#     27705
#     46360
#     61142
#     81850
#     96927
#     108057
#     122717
#     151937
#     173525
# 
# Disc length: 2638 seconds
# 
# Revision: 1
# Processed by: cddbd v1.4b41PL1 Copyright (c) Steve Scherf et al.
# Submitted via: DiscPlay 4.0.3
# 
DISCID=750a4c0a
DTITLE=John Mayall - New Year, New Band, New Company
DYEAR=1900
DGENRE=
TTITLE0=Sitting On The Outside
TTITLE1=Can't Get Home
TTITLE2=Step In The Sun
TTITLE3=To Match The Wind
TTITLE4=Sweet Scorpio
TTITLE5=Driving On
TTITLE6=Taxman Blues
TTITLE7=So Much To Do
TTITLE8=My Train Time
TTITLE9=Respectfully Yours
EXTD=
EXTT0=
EXTT1=
EXTT2=
EXTT3=
EXTT4=
EXTT5=
EXTT6=
EXTT7=
EXTT8=
EXTT9=
PLAYORDER=
